<svg width="436" height="303" viewBox="0 0 436 303" fill="none" xmlns="http://www.w3.org/2000/svg">
<path d="M78.4063 19.3461C80.583 20.648 83.0627 22.1847 86.6295 24.3949L87.1764 24.7338C91.8728 27.6502 98.3155 31.6454 108.064 37.5936C85.9846 88.4648 98.3408 118.967 101.845 122.988C103.508 124.897 106.313 125.839 108.938 125.303C156.493 115.598 202.504 143.569 211.502 187.657C220.498 231.74 189.125 275.503 141.57 285.208C95.2441 294.662 52.0603 268.242 38.8828 222.391C9.82573 121.262 62.1036 41.083 78.4063 19.3461Z" fill="url(#paint0_linear)"/>
<path d="M286.406 19.3461C288.583 20.648 291.063 22.1847 294.63 24.3949L295.176 24.7338C299.873 27.6502 306.315 31.6454 316.064 37.5936C293.985 88.4648 306.341 118.967 309.845 122.988C311.508 124.897 314.313 125.839 316.938 125.303C364.493 115.598 410.504 143.569 419.502 187.657C428.498 231.74 397.125 275.503 349.57 285.208C303.244 294.662 260.06 268.242 246.883 222.391C217.826 121.262 270.104 41.083 286.406 19.3461Z" fill="url(#paint1_linear)"/>
<defs>
<linearGradient id="paint0_linear" x1="141.215" y1="285.28" x2="86.6028" y2="17.6734" gradientUnits="userSpaceOnUse">
<stop stop-color="#1A1D1E"/>
<stop offset="0.453125" stop-color="#013D3B"/>
</linearGradient>
<linearGradient id="paint1_linear" x1="349.215" y1="285.28" x2="294.603" y2="17.6734" gradientUnits="userSpaceOnUse">
<stop stop-color="#1A1D1E"/>
<stop offset="0.453125" stop-color="#013D3B"/>
</linearGradient>
</defs>
</svg>
