<svg xmlns="http://www.w3.org/2000/svg" xmlns:xlink="http://www.w3.org/1999/xlink" data-name="Layer 1" viewBox="0 0 1190.55 841.89"><defs><linearGradient id="b" x1="872.71" x2="872.71" y1="442.17" y2="635.41" gradientTransform="translate(-8.22 -110.49)" gradientUnits="userSpaceOnUse"><stop offset="0" stop-color="#f7e830"/><stop offset="1" stop-color="#fdcb06"/></linearGradient><linearGradient id="a" x1="926.48" x2="926.53" y1="449.14" y2="458.29" gradientTransform="translate(-8.22 -110.49)" gradientUnits="userSpaceOnUse"><stop offset="0" stop-color="#fada1c"/><stop offset="1" stop-color="#fdcb06"/></linearGradient><linearGradient id="d" x1="2334.02" x2="2334.07" y1="448.7" y2="457.85" gradientTransform="matrix(-1 0 0 1 3144.64 -110.49)" xlink:href="#a"/><radialGradient id="c" cx="871.7" cy="530.31" r="157.18" gradientTransform="translate(-8.22 -110.49)" gradientUnits="userSpaceOnUse"><stop offset=".6" stop-color="#f29405"/><stop offset=".74" stop-color="#f7d01e"/><stop offset="1" stop-color="#fdcb06"/></radialGradient><clipPath id="e"><path fill="none" d="M918.27,343.17a3.56,3.56,0,0,1-.29-1.65l-.27,0a3.74,3.74,0,0,0-3.19-2.9c-1.18-.1-2.66-.06-3.35,1-1.31,1.78-.69,4.05-.76,6.05,0,.14,0,.37,0,.5a23.15,23.15,0,0,1-.4,4,2.9,2.9,0,0,0-.29,1.28,30.35,30.35,0,0,1-3.19,8.94,3.26,3.26,0,0,0-.63,1.28,44.58,44.58,0,0,1-3.38,4.87,4,4,0,0,0-.53.56A30.8,30.8,0,0,1,899.3,370a6.9,6.9,0,0,0-.59.43,21.89,21.89,0,0,1-3.71,2.92c-.17.1-.33.23-.53.36-8.42,5.56-18.64,7.86-28.6,8a53.5,53.5,0,0,1-24.6-5.2c-.13-.06-.46-.19-.59-.26a31.93,31.93,0,0,1-3.78-2.14c-.26-.13-.53-.29-.82-.42a25.27,25.27,0,0,1-3.45-2.44c-.37-.32-.76-.59-1.15-.88a28.15,28.15,0,0,1-3.42-3.13l-.79-.82a32.78,32.78,0,0,1-7.86-13.18c-1.41-3.92-1.22-8.19-1.38-12.3-1.19-1.81-3.68-2.83-5.66-1.71-.82.59-.92,1.68-1.54,2.43-1,10.85,3.62,21.67,11,29.5a.54.54,0,0,0,.37.52c1.31,1.22,2.59,2.47,3.91,3.65a5.21,5.21,0,0,0,.79.66c1.31,1.08,2.73,2.07,4.11,3.09a5.7,5.7,0,0,0,.82.52,36.13,36.13,0,0,0,5.46,3,4.68,4.68,0,0,0,.49.33,59.43,59.43,0,0,0,19.89,5.69,10.29,10.29,0,0,1,2.27.23c3.29.19,6.57.1,9.86,0,10.16-.89,20.65-3.35,29.13-9.34l.1.13c.26-.23.49-.42.76-.62,1.34-1,2.66-2,4-3.12a10.86,10.86,0,0,0,.93-.79,44.45,44.45,0,0,0,4.34-4.84l.19.1c.1-.16.27-.49.37-.66,1.11-1.51,2.13-3.09,3.12-4.66.06-.1.23-.27.29-.37l-.13-.13.43-.52a38.61,38.61,0,0,0,4-11.61.56.56,0,0,0,.36-.53,31.64,31.64,0,0,0,.36-3.87A22.33,22.33,0,0,0,918.27,343.17Z"/></clipPath></defs><path fill="url(#b)" stroke="#fcd109" stroke-width=".09" d="M981.61,332.66c-.1-.33-.2-.65-.33-1q-116.82,0-233.59,0a1.32,1.32,0,0,0-.36.76q0,90.58,0,181.15a14.68,14.68,0,0,0,4.64,8.35c.1,0,.33.07.43.1a11.41,11.41,0,0,0,4.6,2.5c1.22-.07,2.4.46,3.62.33h96.66a7.78,7.78,0,0,0,2.76-.23c0-.13.06-.36.1-.5s.06-.52.1-.72c2.07-11.57,4.07-23.18,6.27-34.75.07-.49.14-1,.2-1.48-8.94,0-17.92,0-26.86,0-2.17-.07-4.4,0-6.57-.27-3.72-.16-7.47,0-11.18-.39-4.6,0-9.18-.43-13.78-.43-3.61-.36-7.26-.23-10.91-.39-2.37-.3-4.8-.17-7.2-.27-3.92-.42-7.89-.13-11.81-.55-4.14,0-8.28-.33-12.42-.43a.51.51,0,0,0,.06-.2c1.38,0,2.73-.06,4.11-.1,3.06-.39,6.15-.13,9.21-.56,3.19,0,6.34-.42,9.53-.42,2.83-.4,5.69-.17,8.52-.56,3.32,0,6.57-.43,9.89-.46,2.73-.36,5.49-.17,8.22-.53,3.19,0,6.35-.46,9.54-.43,3.12-.36,6.31-.26,9.43-.59-.29-1.21-.52-2.43-.79-3.65-.23-.75-1.15-.59-1.74-.69q-10.7-1.53-21.34-3c.46-.37,1.09-.2,1.62-.27,5.52-.42,11-.92,16.53-1.31,1.25-.07,2.47-.3,3.72-.33a42.56,42.56,0,0,0-1.65-5.16c-11.8-1.81-23.6-3.42-35.37-5.36,3.06-.49,6.15-.72,9.2-1.05l.27-.1c9.76-1,19.56-2.17,29.32-3.13,12.4-.06,24.76,0,37.15,0,.4-.06,1.09.14,1.16-.42,1-5.33,2-10.65,3-16a79.7,79.7,0,0,1,7.1-21.44,63.31,63.31,0,0,1,24.46-26.17c9.76-5.72,21.08-8.48,32.32-9a51.38,51.38,0,0,1,11,.23c2.37.56,4.8,1.22,6.67,2.83a11.16,11.16,0,0,1,3.16,4.93A78.62,78.62,0,0,1,963.3,405c0,1.84.36,3.92-.63,5.59s-2.76,2.44-4.5,2.93c-6.34,1.64-13,.1-19.33,1.64a23.55,23.55,0,0,0-13.42,8.19c-3.91,4.86-6,10.91-7.13,17-.89,5.4-2,10.79-2.89,16.21,6.24,0,12.52,0,18.8,0a6.63,6.63,0,0,1,6.09,3.74c1.31,3,1,6.45.59,9.64a35.24,35.24,0,0,1-3,10.42,11.77,11.77,0,0,1-6.65,6.34,13.11,13.11,0,0,1-5,.5c-5.52,0-11,.06-16.57,0-.89,4-1.48,8.18-2.27,12.29-1.45,8-2.86,16-4.31,24,0,.26-.06.82-.06,1.12,2.59.13,5.19,0,7.79.06q28.9,0,57.86,0a11.51,11.51,0,0,0,6-1.45c1.08-.39,1.74-1.34,2.69-1.87s1.19-1.61,2-2.3a11.06,11.06,0,0,0,1.81-4.87,3.25,3.25,0,0,0,.49-.06C981.58,453.65,981.68,393.16,981.61,332.66Z"/><path fill="#f8f3b5" stroke="#f8f3b5" stroke-width=".09" d="M778,292.88c2.79-.89,5.72-.29,8.58-.49q80.54,0,161.07,0c3.19-.13,6,1.68,8.94,2.6,2.37.95,4.83,1.71,7.2,2.72a4,4,0,0,1,1.21,1c0,4.34,0,8.71,0,13.09a11.1,11.1,0,0,0,.24,3.45c.69.1,1,.62,1.51,1.05a45.17,45.17,0,0,1,6,3.91c3,2.11,6.12,3.95,9,6.12a5.54,5.54,0,0,1-.23,2.53,13.49,13.49,0,0,0-.2,2.83q-116.84,0-233.59,0c-.17-1.09.13-2.17-.33-3.19-.07-.85-.36-2,.46-2.56,3.29-2.3,6.77-4.38,10-6.81,2-1.28,4-2.6,5.89-3.91A4.22,4.22,0,0,0,764,313c0-4.77,0-9.54,0-14.31,1.12-1.44,3.06-1.61,4.61-2.33,3.12-1.18,6.28-2.33,9.37-3.52m.2.56c-4.21,1.61-8.45,3.16-12.66,4.77-.56.1-.86.59-1.15,1,0,.26.06.72.06,1,0,4,0,7.89,0,11.84a8.2,8.2,0,0,0,.26,2.86,8,8,0,0,1-1.41,1.18c-4.77,3.09-9.37,6.45-14.14,9.51-.82.49-1.74,1.15-1.48,2.23-.16.59.13,1.09.76.92,10.32-.07,20.61.07,30.94-.1,15.35,0,30.67,0,46,0l.24-.1a8.64,8.64,0,0,0,2.1.1q41.72,0,83.47,0c8.75,0,17.53,0,26.31,0,14.46,0,29,.13,43.43.07.42-.1.56-.4.39-.92s.17-1.25-.39-1.58c-2.3-1.09-4.28-2.76-6.48-4.08-.79-.65-1.81-1-2.4-1.9-2.27-1.29-4.37-2.86-6.61-4.28a6.47,6.47,0,0,1-1.11-1,8.32,8.32,0,0,0,.26-2.17c0-4.18,0-8.35,0-12.53a1.82,1.82,0,0,0-.52-1.84c-4-1.41-7.86-2.92-11.77-4.37a13.68,13.68,0,0,0-3.88-1.12h-168A12.88,12.88,0,0,0,778.17,293.44Z"/><path fill="#f7b402" stroke="#f7b402" stroke-width=".09" d="M764.42 300.21c2.9 1.22 6 1.91 8.91 3.09 1.58.63 2.07 2.34 2.76 3.72a13.38 13.38 0 0 1-2.33 1.77c-3 2-6.12 4-9.11 6.12a8.2 8.2 0 0 1-.26-2.86C764.42 308.1 764.39 304.16 764.42 300.21zM955.6 303.3c2.93-1.15 6-1.94 8.92-3.09 0 4.18 0 8.35 0 12.53a8.32 8.32 0 0 1-.26 2.17c-2.57-1.78-5.17-3.45-7.73-5.2a31.13 31.13 0 0 1-3.75-2.72C953.5 305.61 954 303.93 955.6 303.3z"/><path fill="#bda727" stroke="#bda727" stroke-width=".09" d="M814.59 304.65c3.62-.85 7.66 2.37 7.37 6.15a6.25 6.25 0 0 1-7.46 5.88 7.09 7.09 0 0 1-3.72-2.53 6.17 6.17 0 0 1-.49-6A5.89 5.89 0 0 1 814.59 304.65zM908.39 306.72a6.35 6.35 0 0 1 6.15-2A6.16 6.16 0 0 1 916.09 316a6.35 6.35 0 0 1-7.56-1.28A6.27 6.27 0 0 1 908.39 306.72z"/><path fill="#f7e62d" stroke="#f7e62d" stroke-width=".09" d="M773.76 308.79a13.38 13.38 0 0 0 2.33-1.77l.23.23c.24 1.71.07 3.45.14 5.16-.1 5.13.1 10.29-.14 15.42-9.56 0-19.13-.07-28.7 0-.26-1.08.66-1.74 1.48-2.23 4.77-3.06 9.37-6.42 14.14-9.51a7.68 7.68 0 0 0 1.41-1.18C767.64 312.81 770.74 310.83 773.76 308.79zM952.48 308.14a2 2 0 0 1 .33-1.15 31.13 31.13 0 0 0 3.75 2.72c2.56 1.75 5.16 3.42 7.73 5.2a6.47 6.47 0 0 0 1.11 1c2.24 1.42 4.34 3 6.61 4.28.59.88 1.61 1.25 2.4 1.9 2.2 1.32 4.18 3 6.48 4.08.56.33.36 1 .39 1.58-9.57 0-19.1 0-28.67 0-.16-1.31-.06-2.63-.1-3.91C952.52 318.66 952.45 313.4 952.48 308.14z"/><path fill="url(#c)" stroke="#fcd109" stroke-width=".09" d="M981.28,327.8c-9.57,0-19.1,0-28.67,0-.16-1.31-.06-2.63-.09-3.91,0-5.26-.07-10.52,0-15.78a2,2,0,0,1,.33-1.15c.69-1.38,1.22-3.06,2.79-3.69,2.93-1.15,6-1.94,8.92-3.09a1.84,1.84,0,0,0-.53-1.84c-4-1.41-7.86-2.92-11.77-4.37a13.68,13.68,0,0,0-3.88-1.12h-168a13.26,13.26,0,0,0-2.14.56c-4.2,1.61-8.44,3.16-12.65,4.77-.56.1-.86.59-1.15,1,0,.26.06.72.06,1,2.9,1.22,6,1.91,8.91,3.09,1.58.63,2.07,2.34,2.76,3.72l.23.23c.23,1.71.07,3.45.14,5.16-.1,5.13.09,10.29-.14,15.42-9.56,0-19.13-.07-28.7,0-.16.59.13,1.09.76.92,10.32-.07,20.61.07,30.94-.1,15.35,0,30.67,0,46,0l.23-.1a8.69,8.69,0,0,0,2.11.1q41.72,0,83.47,0c8.75,0,17.53,0,26.31,0,14.46,0,29,.13,43.43.07C981.32,328.62,981.45,328.32,981.28,327.8Zm-171-19.63a5.89,5.89,0,0,1,4.3-3.52c3.62-.85,7.66,2.37,7.37,6.15a6.25,6.25,0,0,1-7.46,5.88,7.09,7.09,0,0,1-3.72-2.53A6.17,6.17,0,0,1,810.29,308.17Zm98.1-1.45a6.35,6.35,0,0,1,6.15-2A6.16,6.16,0,0,1,916.09,316a6.35,6.35,0,0,1-7.56-1.28A6.27,6.27,0,0,1,908.39,306.72Z"/><path fill="url(#a)" stroke="#fcd109" stroke-width=".09" d="M916.77,342.25c.46.09-2.39-2.75-1.83-2.88.52.07,2.52-1.48,4.93-.22s1.81,4.22,1.54,5.32a6,6,0,0,1-1.82,2.79,3.07,3.07,0,0,1-1.66.72c.29-1.61-.66-1.87-.72-3.51Z"/><path fill="url(#d)" stroke="#fcd109" stroke-width=".09" d="M811.67,344c-.06,1.64-1,1.91-.72,3.52a3.23,3.23,0,0,1-1.67-.73,6,6,0,0,1-1.81-2.79c-.27-1.1-.87-4,1.54-5.32s4.41.29,4.93.22c.56.13-2.29,3-1.84,2.88Z"/><path fill="#bda727" stroke="#bda727" stroke-width=".09" d="M912.47,363.31a1.81,1.81,0,0,1,1.48-.43c-4,8.55-8.55,17.09-15.47,23.75a21,21,0,0,1-2.34,1.83c-.79.58-1.57,1.13-2.34,1.68s-1.51,1.05-2.24,1.61c-1.87,1-3.52,2.43-5.59,3.05a52.19,52.19,0,0,1-12,3.88,33.66,33.66,0,0,1-4.89.69c-2,.59-4.21.17-6.28.3-1.16.2-2.17-.46-3.29-.33-1-.14-1.94-.3-2.9-.49s-1.94-.43-2.91-.69c-15.07-4.71-29.86-16.21-34.17-31.78a16.62,16.62,0,0,1-.3-3.17c.46.92.94,1.83,1.43,2.74,6.14,13.37,18.3,23.89,32.67,27.06,1.17.53,2.43.35,3.55.81a9.14,9.14,0,0,1,3,.29c3.39.07,6.77,0,10.16,0a4.67,4.67,0,0,0,1.35-.29,43.19,43.19,0,0,0,16.32-4.07c1-.46,2-1,3-1.49s1.73-1,2.56-1.49,1.61-1.09,2.37-1.68a54.32,54.32,0,0,0,14.92-18.25C911.3,365.58,911.92,364.38,912.47,363.31Z"/><path fill="#0d69b3" stroke="#0d69b3" stroke-width=".09" d="M907.11,392.53c9.76-5.72,21.08-8.48,32.32-9a50.1,50.1,0,0,1,11,.23c2.37.55,4.8,1.21,6.67,2.82a14.11,14.11,0,0,1-2.83-.49,47.91,47.91,0,0,0-8.21-.39,86.35,86.35,0,0,0-23.58,2.79,55.77,55.77,0,0,0-11.67,4.73,58.24,58.24,0,0,0-16.6,13.62c-8.22,9.43-13,21.4-15.39,33.6-1.12,6.54-2.4,13.05-3.42,19.62a48.28,48.28,0,0,1-5,.07q-10.86,0-21.7-.13c-1.55.06-3.06-.3-4.6-.2-13.16.07-26.31,0-39.46,0l.27-.1c9.76-1,19.56-2.17,29.32-3.13,12.4-.06,24.76,0,37.15,0,.4-.06,1.09.14,1.15-.42,1-5.33,2-10.65,3-16a79.7,79.7,0,0,1,7.1-21.44A63.31,63.31,0,0,1,907.11,392.53Z"/><path fill="#107bd4" stroke="#107bd4" stroke-width=".09" d="M922.43,388.49A86.35,86.35,0,0,1,946,385.7a47.91,47.91,0,0,1,8.21.39,14.11,14.11,0,0,0,2.83.49,11.16,11.16,0,0,1,3.16,4.93A78.62,78.62,0,0,1,963.3,405c0,1.85.36,3.92-.63,5.59s-2.76,2.44-4.5,2.93c-6.35,1.64-13,.1-19.33,1.64a23.55,23.55,0,0,0-13.42,8.19c-3.91,4.86-6,10.91-7.13,17-.89,5.4-2,10.79-2.89,16.21a28.23,28.23,0,0,0-.86,3.82c6.21.1,12.43,0,18.64.06,2.37-.06,4.74.07,7.1-.1,1.32,3,1,6.45.6,9.64a35,35,0,0,1-3,10.42,11.72,11.72,0,0,1-6.64,6.34,13.13,13.13,0,0,1-5,.5c-5.53,0-11,.06-16.57,0-.89,4-1.48,8.18-2.27,12.29-1.45,8-2.86,16-4.31,24,0,.26-.06.82-.06,1.12v0c-14.37,0-28.7,0-43.07,0,0-.13.06-.36.1-.5s.06-.52.1-.72c0,.27.06.76.09,1,.89.1,2.5.56,2.73-.72,2.24-12.1,4.31-24.27,6.61-36.37a6.78,6.78,0,0,0-2.73,0c-.13.46-.26.92-.42,1.38.06-.49.13-1,.19-1.48-8.94,0-17.92,0-26.86,0-2.17-.07-4.4,0-6.57-.27-3.72-.16-7.47,0-11.18-.39-4.6,0-9.17-.43-13.78-.43-3.61-.36-7.26-.23-10.91-.39-2.37-.3-4.8-.17-7.2-.27-3.91-.42-7.89-.13-11.8-.55-4.15,0-8.29-.33-12.43-.43a.51.51,0,0,0,.06-.2c1.38,0,2.73-.06,4.11-.1,3.06-.39,6.15-.13,9.21-.56,3.19,0,6.34-.42,9.53-.42,2.83-.4,5.69-.17,8.52-.56,3.32,0,6.57-.43,9.89-.46,2.73-.36,5.49-.17,8.22-.53,3.19,0,6.35-.46,9.54-.43,3.12-.36,6.31-.26,9.43-.59-.29-1.22-.52-2.43-.79-3.65-.23-.75-1.15-.59-1.74-.69q-10.7-1.53-21.34-3c.47-.37,1.09-.2,1.62-.27,5.52-.42,11-.92,16.53-1.31,1.25-.07,2.47-.3,3.72-.33a42.56,42.56,0,0,0-1.65-5.16c-11.8-1.81-23.6-3.42-35.37-5.36,3.06-.49,6.15-.72,9.2-1.05,13.16,0,26.31.1,39.46,0,1.54-.1,3,.26,4.6.2q10.84.09,21.7.13a48.28,48.28,0,0,0,5-.07c1-6.57,2.3-13.08,3.42-19.63,2.34-12.19,7.17-24.16,15.39-33.6a58.37,58.37,0,0,1,16.6-13.61A55.77,55.77,0,0,1,922.43,388.49Z"/><path fill="#0d69b3" stroke="#0d69b3" stroke-width=".09" d="M915.4 456.51c6.24 0 12.52 0 18.8 0a6.61 6.61 0 0 1 6.08 3.74c-2.36.17-4.73 0-7.1.1-6.21-.06-12.43 0-18.64-.06A28.23 28.23 0 0 1 915.4 456.51zM866.9 487.32a6.78 6.78 0 0 1 2.73 0c-2.3 12.1-4.37 24.27-6.61 36.37-.23 1.28-1.84.82-2.73.72 0-.23-.06-.72-.09-1 2.07-11.57 4.07-23.18 6.27-34.75C866.64 488.24 866.77 487.78 866.9 487.32z"/><path fill="#fff" stroke="#fff" stroke-width=".09" d="M918.27,343.17a3.56,3.56,0,0,1-.29-1.65l-.27,0a3.74,3.74,0,0,0-3.19-2.9c-1.18-.1-2.66-.06-3.35,1-1.31,1.78-.69,4.05-.76,6.05,0,.14,0,.37,0,.5a23.15,23.15,0,0,1-.4,4,2.9,2.9,0,0,0-.29,1.28,30.35,30.35,0,0,1-3.19,8.94,3.26,3.26,0,0,0-.63,1.28,44.58,44.58,0,0,1-3.38,4.87,4,4,0,0,0-.53.56A30.8,30.8,0,0,1,899.3,370a6.9,6.9,0,0,0-.59.43,21.89,21.89,0,0,1-3.71,2.92c-.17.1-.33.23-.53.36-8.42,5.56-18.64,7.86-28.6,8a53.5,53.5,0,0,1-24.6-5.2c-.13-.06-.46-.19-.59-.26a31.93,31.93,0,0,1-3.78-2.14c-.26-.13-.53-.29-.82-.42a25.27,25.27,0,0,1-3.45-2.44c-.37-.32-.76-.59-1.15-.88a28.15,28.15,0,0,1-3.42-3.13l-.79-.82a32.78,32.78,0,0,1-7.86-13.18c-1.41-3.92-1.22-8.19-1.38-12.3-1.19-1.81-3.68-2.83-5.66-1.71-.82.59-.92,1.68-1.54,2.43-1,10.85,3.62,21.67,11,29.5a.54.54,0,0,0,.37.52c1.31,1.22,2.59,2.47,3.91,3.65a5.21,5.21,0,0,0,.79.66c1.31,1.08,2.73,2.07,4.11,3.09a5.7,5.7,0,0,0,.82.52,36.13,36.13,0,0,0,5.46,3,4.68,4.68,0,0,0,.49.33,59.43,59.43,0,0,0,19.89,5.69,10.29,10.29,0,0,1,2.27.23c3.29.19,6.57.1,9.86,0,10.16-.89,20.65-3.35,29.13-9.34l.1.13c.26-.23.49-.42.76-.62,1.34-1,2.66-2,4-3.12a10.86,10.86,0,0,0,.93-.79,44.45,44.45,0,0,0,4.34-4.84l.19.1c.1-.16.27-.49.37-.66,1.11-1.51,2.13-3.09,3.12-4.66.06-.1.23-.27.29-.37l-.13-.13.43-.52a38.61,38.61,0,0,0,4-11.61.56.56,0,0,0,.36-.53,31.64,31.64,0,0,0,.36-3.87A22.33,22.33,0,0,0,918.27,343.17Z"/><g clip-path="url(#e)"><path fill="none" stroke="#d1d1d1" stroke-width="2" d="M808.3 342.06c2.67.83 8.79-1.27 10.52.65M809.84 350.17c2.55-.89 8-3 10.3-1.76M812.47 358.28c1.23.4 3.67-1.77 4.88-2.41a18.06 18.06 0 0 1 5.64-2M816.41 366.82a18.57 18.57 0 0 1 4.64-4.59c1.82-1.28 6.81-4.68 9-3.52M820.14 373c1.44-1.15 2-3.18 3.55-4.39 1.84-1.46 4.65-1.72 6.53-2.62M826.33 377.51c.43-3.18 3.66-7 6.74-6.74M831.1 382c1.63-.17 3-3.81 4.1-5 1.65-1.85 3.36-2.42 5.54-3.07M840.52 385.89c-.1-2.3 2.27-8.89 5-8.55M847.54 388.08c-.12-2.71 1.29-10.89 4.6-11.17M854.77 392.47c-.63-3.8-.59-9.3 2.41-12.06M863.76 393.34c-.34-3.16-3.49-9.57 0-12M873.4 391.15c-1.5-1.74-2.38-8.61-1.75-10.52M882.61 389.62c-1.16-2.11-2.6-4.08-3-6.53-.26-1.46.2-3.54 0-4.65M890.28 386.33c-2.52-1.64-3.21-7.69-2.41-10.3M897.73 383c-1.79-3.83-3.7-6.81-3.73-11.18M905 376c-2.78-1.87-6.32-5.27-5.92-9M912.63 370.11c-4.22-.93-9.29-4.71-11.83-8.11M916.14 362.88c-3-.65-13.11-4.58-12.49-8.55M919.43 355.21c-4.25-1.56-10.42-3-13.81-5.92M921.62 348.19c-2.67.23-6.5-1.06-9.22-1.53-3-.52-5.82-1.54-8.75-2.19M919 341.4c-5.16.31-10-1.46-14.68-3.07"/></g><path fill="#107bd4" stroke="#107bd4" stroke-width=".1" d="M259.15 357.21c4.77-.72 10.25-1.17 14.3 1.79 2.51 1.89 3.41 5.31 3.23 8.36.18 5-2.15 10.43-6.65 13-3.95 2.16-8.72 2.33-13.12 1.89a9.92 9.92 0 0 1-7.46-4.68C246 369.79 250.26 358.73 259.15 357.21zM116.59 362.87a5.61 5.61 0 0 1 5.48-5c20.77 0 41.44.09 62.12 0a6 6 0 0 1 5.75 2.78c1.53 2.7.18 5.67 0 8.45-.63 3.78-.45 8.81-4.85 10.25-15.11.45-30.21 0-45.31.18-1.44 9.53-2.79 19-4.23 28.4 0 .36.1 1.17.1 1.53 11-.09 22.11 0 33.16-.09 3.06-.18 6.3 2.43 6 5.67s-1 6.56-1.44 9.88a5.86 5.86 0 0 1-4.5 4.77c-12.31.27-24.81-.27-37.12.27-2 13.57-4.32 27.14-6.38 40.72a5.59 5.59 0 0 1-5.13 5.12q-7.68.14-15.37 0c-3.32.09-6-3.6-5.12-6.74Q108 415.9 116.59 362.87zM207.92 358c4.67-.36 9.43-.09 14.11-.18a5.78 5.78 0 0 1 6 5 62.22 62.22 0 0 1-.9 7c-3.77 24.09-7.64 48.18-11.41 72.27-.54 3.87-1.53 8-.36 12 1.35 3.95 7.37 2.24 8.81 6.38.9 3.33-.09 6.83-.36 10.25-.27 4.49-5.4 5.48-8.9 6.47-7.64 1.44-16.9.36-22.39-5.93-3.95-4.59-4.22-11.06-3.41-16.81q7.14-45.84 14.38-91.78A5.43 5.43 0 0 1 207.92 358zM386.35 362.87a5.68 5.68 0 0 1 5.39-5h13.67a5.7 5.7 0 0 1 5.39 6.83c-3.15 19.95-6.38 39.91-9.53 59.86 4.77-.72 10.16-1.61 13.48-5.48a83.49 83.49 0 0 0 13.58-21.21c1.17-3 1.8-7.28 5.66-7.82 5.13-.18 10.34-.09 15.46 0 3.51-.09 6.12 3.86 4.95 7.1a63.85 63.85 0 0 1-5.94 13.39C443.25 419 437.5 427.32 430 434c3.32 10 7.55 19.69 11.23 29.49 1.08 3.23 3.69 7 1.26 10.16-2.79 3.77-8 1.88-11.86 2.33-4.05-.45-9.89 1.62-12.14-3-4.23-9.79-7.73-19.86-12.05-29.66a54.14 54.14 0 0 1-7.64-.09c-.17.36-.53 1.08-.71 1.44-1.35 9-2.79 18-4.23 27a5.36 5.36 0 0 1-4.58 4.22c-4.77.18-9.62.09-14.48.09a5.62 5.62 0 0 1-4.85-3.14c-.9-1.8-.36-3.87-.09-5.85Q378.17 414.92 386.35 362.87zM636.15 372.67a5.61 5.61 0 0 1 5.58-4.14c3.59.09 7.28-.09 11 .09a5.4 5.4 0 0 1 4.94 5.94c-.54 5.12-1.8 10.24-2.16 15.37 3.51 0 7.1-.09 10.61 0a5.54 5.54 0 0 1 5.21 6.29c-.45 2.79-1.08 5.48-1.53 8.27a5.83 5.83 0 0 1-4.67 4.58c-4.32.27-8.54-.18-12.76.27-1.8 12.05-3.78 24.09-5.67 36.14-.27 2.79-.45 5.93 1.17 8.36 2.43 3 6.65 1.89 10.07 2.25a5.9 5.9 0 0 1 4 6.47c-.45 3.05-.54 6.11-1.25 9.08-1.08 3.32-5 3.95-7.92 4.76-8.18 2.16-17.61 2.16-24.89-2.61-6.75-4.58-7.83-13.48-7.11-21 1.89-14.56 4.86-29 6.47-43.69-2.51.09-5.57.45-7.45-1.8-2.16-2.24-1.08-5.57-.72-8.36.54-3 .45-6.83 3.68-8.45 2.61-1 5.58-.27 8.36-.62C632.74 384.08 634.36 378.33 636.15 372.67zM585.37 401.79a48.87 48.87 0 0 1 20.31-12.67 5.7 5.7 0 0 1 7.73 5.12c-.63 4.95-1.79 9.8-2.6 14.65a5.73 5.73 0 0 1-4.86 4.77c-8.81 1.52-16.45 6.83-22.56 13.12-1.53 1.89-3.78 3.69-4 6.29-1.88 12.59-3.86 25.17-5.84 37.76-.27 2.69-2.61 5.3-5.39 5.12H554.44a5.63 5.63 0 0 1-5.57-6.11c4-24.9 7.91-49.71 11.78-74.61a5.47 5.47 0 0 1 4.58-5.21c3.33-.18 6.65-.09 10.07-.09a5.39 5.39 0 0 1 5.21 5.21c0 3.86-.36 7.82-.45 11.78C582.22 405.57 583.57 403.41 585.37 401.79zM249.36 390.38c4.85-1 9.88-.18 14.74-.45 2.78-.36 5.75 1.43 6.2 4.22.36 2.52-.36 5-.63 7.37q-5.52 34.65-11 69.31c-.27 2.61-2.42 5.21-5.21 5.12-4.85 0-9.71.09-14.65-.09a5.65 5.65 0 0 1-4.5-6.83c3.87-24 7.56-47.91 11.42-71.91C245.94 394.51 246.66 391.45 249.36 390.38zM540.24 391.55c-13.39-2.52-27-4.32-40.63-3-12.13 1.53-24.36 7-31.82 17-10.34 13.12-13.84 30.74-11.51 47.1 1.26 7.82 4.68 15.73 11.06 20.59 5.93 4.58 13.93 5.21 21.13 4 10.06-2 18.6-8.45 25.61-15.64.36 3.06-.36 6.11-.18 9.08.18 2.78 2.7 5.39 5.49 5.21h9.17a5.51 5.51 0 0 0 5.12-5.12q5.8-36.54 11.51-72.9A5.68 5.68 0 0 0 540.24 391.55zM515 433.88A69.08 69.08 0 0 1 500.69 452c-3.24 2.7-7.37 5.48-11.78 4.58s-6.38-5.39-7.37-9.25A39.55 39.55 0 0 1 487 417.52a19.22 19.22 0 0 1 11.23-8.36c6.56-1.62 13.49-.81 19.87 1l.36.36C517.68 418.33 516.15 426.06 515 433.88zM363.79 420.4c-.09-9-2.52-18.43-8.81-25.17a22.77 22.77 0 0 0-17.08-7.1c-10.43-.36-20.23 4.76-27.87 11.59-1.71 1.35-2.87 3.33-4.76 4.41 0-3 .27-5.93.18-9a5.33 5.33 0 0 0-5.22-5.21h-9.17a5.64 5.64 0 0 0-5.39 5.3q-8.49 53.94-17.08 107.87a5.58 5.58 0 0 0 5.49 6.65c5-.09 10.15.36 15.1-.36 3.95-1.08 3.86-5.66 4.49-9 1.44-7.91 2.43-15.82 3.33-23.82 17.71 3.42 38.29 1.08 51.51-12.31C359.29 452.49 364.33 436.22 363.79 420.4zm-25.17 9.08c-.54 8.27-3.51 16.63-9.26 22.65-7.46 7.1-18.79 6.11-28 3.69a6 6 0 0 1-.54-1.08c1.44-7.82 2.16-15.73 4-23.46 5-8.27 11.15-16.63 19.86-21.22 3.24-1.53 7.65-1.17 10 1.8C338.62 416.8 339 423.46 338.62 429.48z"/></svg>