<svg width="814" height="387" viewBox="0 0 814 387" fill="none" xmlns="http://www.w3.org/2000/svg">
<path d="M86.2134 217.942H159.234V309.131C139.407 315.92 117.613 319.315 93.8511 319.315C67.7749 319.315 47.6006 311.754 33.3281 296.633C19.1328 281.512 12.0352 259.949 12.0352 231.944C12.0352 204.633 19.8271 183.379 35.4111 168.181C50.9951 152.983 72.8281 145.383 100.91 145.383C111.557 145.383 121.586 146.386 130.998 148.392C140.487 150.398 148.742 152.944 155.763 156.03L141.297 191.904C129.108 185.886 115.723 182.878 101.142 182.878C87.7949 182.878 77.457 187.237 70.1279 195.954C62.876 204.595 59.25 216.977 59.25 233.101C59.25 248.917 62.5288 260.99 69.0864 269.322C75.7212 277.577 85.249 281.705 97.6699 281.705C104.459 281.705 110.708 281.049 116.417 279.737V253.237H86.2134V217.942ZM270.212 183.572C274.147 183.572 277.889 183.881 281.438 184.498L283.983 184.961L279.933 227.662C276.23 226.737 271.1 226.274 264.542 226.274C254.667 226.274 247.492 228.549 243.018 233.101C238.543 237.576 236.306 244.056 236.306 252.543V317H191.058V185.886H224.733L231.792 206.832H233.991C237.771 199.889 243.018 194.296 249.729 190.052C256.519 185.732 263.346 183.572 270.212 183.572ZM387.902 317L379.223 299.642H378.297C372.203 307.202 365.992 312.371 359.666 315.149C353.34 317.926 345.162 319.315 335.133 319.315C322.789 319.315 313.068 315.612 305.971 308.205C298.873 300.799 295.324 290.384 295.324 276.96C295.324 262.996 300.185 252.62 309.905 245.831C319.626 238.965 333.706 235.107 352.144 234.258L374.016 233.564V231.713C374.016 220.912 368.692 215.511 358.046 215.511C348.479 215.511 336.329 218.752 321.593 225.232L308.517 195.376C323.792 187.507 343.079 183.572 366.378 183.572C383.196 183.572 396.196 187.738 405.376 196.07C414.634 204.402 419.263 216.051 419.263 231.018V317H387.902ZM354.343 287.375C359.82 287.375 364.488 285.639 368.345 282.168C372.28 278.696 374.247 274.183 374.247 268.628V258.445L363.832 258.907C348.942 259.447 341.498 264.925 341.498 275.34C341.498 283.363 345.779 287.375 354.343 287.375ZM530.125 183.572C544.398 183.572 555.7 189.551 564.032 201.509C572.441 213.467 576.646 230.015 576.646 251.154C576.646 272.447 572.403 289.15 563.917 301.262C555.507 313.297 543.781 319.315 528.737 319.315C523.876 319.315 519.556 318.775 515.776 317.695C511.996 316.692 508.601 315.264 505.592 313.413C502.661 311.561 499.228 308.475 495.293 304.155H492.516L485.341 317H450.045V136.936H495.293V177.67C495.293 182.53 494.753 190.901 493.673 202.782H495.293C499.69 195.993 504.744 191.094 510.453 188.085C516.239 185.076 522.796 183.572 530.125 183.572ZM513.577 219.099C507.251 219.099 502.622 221.298 499.69 225.695C496.759 230.092 495.293 236.997 495.293 246.409V252.774C495.293 263.498 496.759 271.213 499.69 275.919C502.622 280.548 507.405 282.862 514.04 282.862C519.363 282.862 523.452 280.162 526.307 274.761C529.161 269.284 530.588 261.26 530.588 250.691C530.588 229.63 524.918 219.099 513.577 219.099ZM648.047 317H602.799V185.886H648.047V317ZM601.642 153.253C601.642 146.464 603.532 141.41 607.312 138.093C611.093 134.776 617.188 133.117 625.597 133.117C634.006 133.117 640.139 134.814 643.997 138.209C647.854 141.603 649.783 146.618 649.783 153.253C649.783 166.522 641.721 173.157 625.597 173.157C609.627 173.157 601.642 166.522 601.642 153.253ZM707.413 250.112L667.373 185.886H718.753L738.658 222.686L759.025 185.886H810.521L769.44 250.112L812.142 317H760.761L738.658 277.192L716.67 317H665.174L707.413 250.112Z" fill="#D4DEDE"/>
<ellipse cx="626.5" cy="144" rx="30.5" ry="29" fill="#013D3B"/>
<path d="M596.2 168.457C597.768 170.125 599.654 171.466 601.748 172.402C603.842 173.338 606.102 173.851 608.397 173.909L656.227 175.237C659.365 175.318 662.408 174.165 664.696 172.028L762.955 79.5704C766.308 76.4083 768.263 72.0515 768.39 67.4562C768.518 62.8608 766.808 58.4023 763.635 55.0591L719.369 8.5045C716.189 5.16627 711.807 3.21936 707.187 3.09112C702.566 2.96288 698.084 4.66379 694.724 7.82049L596.505 100.24C594.229 102.391 592.898 105.349 592.803 108.471L591.482 156.084C591.404 158.355 591.782 160.618 592.592 162.742C593.402 164.866 594.629 166.809 596.2 168.457ZM629.728 124.914C632.191 124.982 634.578 125.776 636.588 127.194C638.597 128.612 640.14 130.59 641.019 132.88C641.899 135.17 642.076 137.667 641.529 140.057C640.982 142.446 639.735 144.621 637.945 146.305C636.156 147.989 633.905 149.107 631.476 149.518C629.048 149.929 626.551 149.614 624.302 148.613C622.053 147.613 620.152 145.971 618.841 143.896C617.529 141.821 616.865 139.406 616.933 136.956C617.025 133.67 618.424 130.556 620.823 128.298C623.223 126.039 626.426 124.822 629.728 124.914Z" fill="#f7d7be"/>
</svg>
