<svg width="330" height="311" viewBox="0 0 330 311" fill="none" xmlns="http://www.w3.org/2000/svg">
<path d="M47.8645 219.94C57.8089 247.132 90.7323 260.081 121.403 248.865C152.074 237.648 168.876 206.513 158.931 179.321C148.987 152.13 116.063 139.181 85.3923 150.397C79.089 152.703 73.4115 155.883 68.3909 159.666C57.6491 91.5508 98.5557 30.131 59.0772 82.8061C15.3019 141.216 47.2527 218.458 47.8427 219.872C47.8509 219.894 47.8554 219.915 47.8645 219.94Z" fill="#D4DEDE"/>
<path d="M199.364 211.943C209.776 238.96 242.918 251.339 273.391 239.595C303.865 227.851 320.126 196.431 309.714 169.415C299.302 142.399 266.16 130.02 235.687 141.764C229.424 144.178 223.803 147.456 218.848 151.324C206.933 83.4047 246.774 21.2882 208.21 74.6366C165.449 133.793 198.727 210.472 199.341 211.876C199.35 211.898 199.355 211.919 199.364 211.943Z" fill="#D4DEDE"/>
</svg>
