<svg xmlns="http://www.w3.org/2000/svg" style="display: none;"><symbol id="movie" viewBox="0 0 512 512"><title>movie</title><path d="m160 208h-48v208h32v-40a24.039 24.039 0 0 1 16-22.624z"/><path d="m192 400h80v48h-80z"/><path d="m368 184a8.009 8.009 0 0 0 -8-8h-320a8.009 8.009 0 0 0 -8 8v8h336z"/><path d="m63.449 416h32.551v-208h-47.408z"/><path d="m327.155 395.578a8 8 0 0 1 -14.31 0l-13.789-27.578h-131.056a8.009 8.009 0 0 0 -8 8v96a8.009 8.009 0 0 0 8 8h131.056l13.789-27.578a8 8 0 0 1 14.31 0l13.789 27.578h131.056a8.009 8.009 0 0 0 8-8v-96a8.009 8.009 0 0 0 -8-8h-131.056zm-39.155 60.422a8 8 0 0 1 -8 8h-96a8 8 0 0 1 -8-8v-64a8 8 0 0 1 8-8h96a8 8 0 0 1 8 8zm64-64a8 8 0 0 1 8-8h96a8 8 0 0 1 8 8v64a8 8 0 0 1 -8 8h-96a8 8 0 0 1 -8-8z"/><path d="m368 400h80v48h-80z"/><path d="m320 374.111 8.845-17.689a8 8 0 0 1 7.155-4.422h4.629l9.288-144h-45.917v144a8 8 0 0 1 7.155 4.422z"/><path d="m176 208h48v144h-48z"/><path d="m52.012 132.788a8 8 0 0 1 3.988 6.922v20.29h296v-14.12a8 8 0 0 1 2.668-5.964 15.994 15.994 0 0 0 -10.668-27.916c-.26 0-.519.009-.778.017a8 8 0 0 1 -7.981-10.017 23.681 23.681 0 0 0 .759-6 24.008 24.008 0 0 0 -47.118-6.5 8 8 0 0 1 -14.564 1.95 39.693 39.693 0 0 0 -34.318-19.45 40.326 40.326 0 0 0 -6.68.549 8 8 0 0 1 -9.32-8.243c0-.1 0-.2 0-.306a32 32 0 0 0 -63.486-5.708 8 8 0 0 1 -14.4 3.217 32 32 0 0 0 -58.114 18.491 32.577 32.577 0 0 0 .191 3.552 8 8 0 0 1 -12.018 7.767 24 24 0 1 0 -24.161 41.469zm147.988-36.788a8 8 0 0 1 8 8 16 16 0 0 0 32 0 8 8 0 0 1 16 0 32 32 0 0 1 -64 0 8 8 0 0 1 8-8zm-72 0a8 8 0 0 1 0-16 32 32 0 0 1 0 64 8 8 0 0 1 0-16 16 16 0 0 0 0-32z"/><path d="m240 208h48v144h-48z"/></symbol><symbol id="payment-method" viewBox="-45 0 418 418"><title>payment-method</title><path d="m228 314.828125c-56.097656-3.210937-99.945312-49.636719-99.945312-105.828125s43.847656-102.617188 99.945312-105.828125v-43.171875h-14c-3.3125 0-6-2.6875-6-6s2.6875-6 6-6h14v-14c-.019531-18.769531-15.230469-33.9804688-34-34h-160c-18.769531.0195312-33.9804688 15.230469-34 34v14h163c3.3125 0 6 2.6875 6 6s-2.6875 6-6 6h-163v286h228zm-45.300781-266.828125h11.109375c3.316406 0 6 2.6875 6 6s-2.683594 6-6 6h-11.109375c-3.3125 0-6-2.6875-6-6s2.6875-6 6-6zm0 0"/><path d="m34 418h160c18.769531-.019531 33.980469-15.230469 34-34v-26h-228v26c.0195312 18.769531 15.230469 33.980469 34 34zm80-51c11.597656 0 21 9.402344 21 21s-9.402344 21-21 21-21-9.402344-21-21c.011719-11.59375 9.40625-20.988281 21-21zm0 0"/><path d="m140 209c0 51.914062 42.085938 94 94 94s94-42.085938 94-94-42.085938-94-94-94c-51.890625.058594-93.941406 42.109375-94 94zm59.253906-17.777344c-3.328125-.070312-5.976562-2.8125-5.933594-6.140625.023438-3.316406 2.683594-6.011719 6-6.082031h.066407l42.835937.636719c-2.648437-10.445313-12.023437-17.777344-22.796875-17.832031l-19.851562-.152344c-1.578125.007812-3.09375-.617188-4.210938-1.734375-1.113281-1.117188-1.734375-2.636719-1.722656-4.214844.027344-1.554687.679687-3.035156 1.804687-4.105469 1.128907-1.074218 2.640626-1.648437 4.195313-1.59375h.066406l19.847657-.054687 49.511718.265625c2.171875-.089844 4.21875 1.023437 5.324219 2.894531s1.089844 4.199219-.035156 6.058594c-1.128907 1.855469-3.183594 2.945312-5.355469 2.832031h-.066406l-22.820313-.109375c4.414063 5.101563 7.308594 11.332031 8.363281 17.992187l14.265626.148438c3.308593.015625 5.972656 2.710938 5.957031 6.015625-.019531 3.304687-2.710938 5.96875-6.019531 5.953125h-.066407l-14.265625-.132812c-3.109375 17.152343-18.132812 29.570312-35.566406 29.398437l-4.761719-.050781 38.25 36.929687c1.570313 1.484375 2.222657 3.695313 1.707031 5.792969-.515624 2.097656-2.117187 3.753906-4.195312 4.34375-2.074219.585938-4.308594.011719-5.84375-1.503906l-49.101562-47.410156c-1.769532-1.707032-2.320313-4.324219-1.382813-6.601563.917969-2.285156 3.148437-3.769531 5.613281-3.726563l19.847656.199219c10.8125.101563 20.335938-7.097656 23.183594-17.53125zm0 0"/><path d="m123 388c0 4.96875-4.03125 9-9 9s-9-4.03125-9-9 4.03125-9 9-9 9 4.03125 9 9zm0 0"/></symbol><symbol id="passport" viewBox="0 0 469.17 469.17"><title>passport</title><g> <g> <path d="M110.185,266.152H75.537c9.851,19.344,27.199,34,48.328,40.313C118.705,296.285,113.529,282.77,110.185,266.152z"/> </g> </g><g> <g> <path d="M126.529,266.152c4.524,20.342,11.993,34.945,17.727,43.766c0.793,0.023,1.531,0.234,2.328,0.234 c0.797,0,1.535-0.211,2.324-0.234c5.754-8.84,13.215-23.438,17.73-43.766H126.529z"/> </g> </g><g> <g> <path d="M223.745,210.152h-38.289c0.667,6.336,1.128,12.926,1.128,20c0,7.078-0.477,13.66-1.152,20h38.313 c1.672-6.43,2.84-13.054,2.84-20C226.585,223.206,225.417,216.582,223.745,210.152z"/> </g> </g><g> <g> <path d="M169.28,153.831c5.278,10.34,10.446,23.74,13.754,40.32h34.598C207.776,174.8,190.42,160.14,169.28,153.831z"/> </g> </g><g> <g> <path d="M148.936,150.39c-0.801-0.023-1.547-0.238-2.351-0.238c-0.797,0-1.539,0.211-2.328,0.234 c-5.977,9.152-13.305,23.717-17.746,43.766h40.152C162.24,174.171,154.94,159.601,148.936,150.39z"/> </g> </g><g> <g> <path d="M169.331,210.152h-45.488c-0.731,6.294-1.258,12.855-1.258,20c0,7.141,0.535,13.703,1.274,20h45.457 c0.734-6.297,1.27-12.858,1.27-20C170.585,223.007,170.057,216.447,169.331,210.152z"/> </g> </g><g> <g> <path d="M75.538,194.151h34.61c3.312-16.587,8.484-30.003,13.742-40.32C102.748,160.144,85.393,174.8,75.538,194.151z"/> </g> </g><g> <g> <path d="M106.584,230.152c0-7.074,0.465-13.664,1.133-20H69.424c-1.672,6.43-2.84,13.054-2.84,20s1.168,13.57,2.84,20h38.317 C107.061,243.812,106.584,237.23,106.584,230.152z"/> </g> </g><g> <g> <path d="M182.986,266.151c-3.335,16.618-8.507,30.124-13.675,40.313c21.125-6.317,38.469-20.97,48.32-40.313H182.986z"/> </g> </g><g> <g> <path d="M426.858,50.791L241.4,1.098c-17.07-4.574-34.617,5.557-39.191,22.627l-16.726,62.426h73.102 c9.879,0,18.602,4.571,24.469,11.606c6.086,1.63,17.473,4.681,27.918,7.479l52.672-49.11l14.746,3.952l-33.008,54.379 c9.687,2.596,19.574,5.244,26.054,6.982l20.012-11.762l9.832,2.634l-15.519,23.502l1.687,28.114l-9.832-2.634l-11.45-20.19 c-6.481-1.738-16.367-4.386-26.054-6.982l1.398,63.6l-14.746-3.952l-21.062-68.867c-5.145-1.378-10.278-2.754-15.117-4.05v192.435 l16.481-62.692l15.453,4.142l-31.934,121.491v29.925c0,17.673-14.328,32-32,32h-55.195l111.66,29.919 c17.07,4.574,34.617-5.556,39.191-22.627l51.793-193.287l-15.496-4.036l4.156-15.453l15.481,4.032l39.313-146.717 C454.061,72.913,443.928,55.366,426.858,50.791z M313.257,227.41l-15.453-4.141l4.156-15.453l15.453,4.141L313.257,227.41z M332.85,216.105l15.469,4.141l-4.125,15.453l-15.469-4.141L332.85,216.105z M323.331,437.162l-15.453-4.141l45.55-170.003 l15.453,4.141L323.331,437.162z M375.084,243.98l-15.453-4.141l4.156-15.453l15.453,4.141L375.084,243.98z"/> </g> </g><g> <g> <path d="M258.584,102.152h-240v320h240c8.824,0,16-7.178,16-16v-288C274.584,109.33,267.408,102.152,258.584,102.152z M226.584,390.152h-160v-16h160V390.152z M146.584,326.152c-53.019,0-96-42.981-96-96c0-53.019,42.981-96,96-96 c53.019,0,96,42.981,96,96C242.584,283.171,199.604,326.152,146.584,326.152z"/> </g> </g></symbol><symbol id="offer" viewBox="0 0 396 396.54035"><title>offer</title><path d="m201.84375 110.957031c11.207031 0 20.328125-11.34375 20.328125-25.289062 0-13.941407-9.121094-25.285157-20.328125-25.285157-11.210938 0-20.332031 11.34375-20.332031 25.285157 0 13.9375 9.121093 25.289062 20.332031 25.289062zm0 0"/><path d="m127.332031 170.589844-.019531.285156c-.714844 12.484375 6.371094 24.21875 18.050781 29.898438l.152344.074218c8.925781 4.277344 16.234375 11.316406 20.847656 20.074219l.082031.148437c6.207032 11.441407 18.484376 18.238282 31.472657 17.425782l.28125-.015625c.886719-.046875 1.773437-.070313 2.65625-.070313 9.117187-.007812 18.050781 2.578125 25.753906 7.460938 11.230469 7.023437 25.488281 7.023437 36.722656 0 8.46875-5.367188 18.402344-7.949219 28.410157-7.386719l.277343.015625c12.984375.820312 25.261719-5.976562 31.464844-17.414062l.0625-.117188c4.621094-8.785156 11.949219-15.84375 20.898437-20.132812l.121094-.058594c11.683594-5.675782 18.769532-17.410156 18.054688-29.898438l-.015625-.273437c-.535157-9.855469 2.203125-19.613281 7.792969-27.75 7.140624-10.414063 7.140624-24.148438 0-34.5625-5.589844-8.136719-8.332032-17.894531-7.800782-27.75l.015625-.28125c.714844-12.484375-6.371093-24.21875-18.050781-29.902344l-.132812-.0625c-8.933594-4.28125-16.25-11.320313-20.867188-20.082031l-.101562-.195313c-5.90625-11.246093-18.253907-18.074219-31.449219-17.378906l-.285157.015625c-10.003906.554688-19.933593-2.027344-28.402343-7.390625-11.234375-7.019531-25.488281-7.019531-36.722657 0-8.46875 5.363281-18.398437 7.945313-28.410156 7.386719l-.273437-.015625c-13.195313-.699219-25.546875 6.136719-31.46875 17.410156l-.074219.148437c-4.621094 8.769532-11.945312 15.820313-20.890625 20.105469l-.136719.066407c-11.503906 5.394531-18.621094 17.195312-18.035156 29.886718l.015625.273438c.535156 9.855468-2.207031 19.613281-7.792969 27.753906-7.140625 10.414062-7.140625 24.148438 0 34.5625 5.585938 8.136719 8.328125 17.890625 7.796875 27.746094zm195.089844-5.128906c0 21.664062-15.402344 39.285156-34.332031 39.285156-18.929688 0-34.328125-17.621094-34.328125-39.285156 0-21.660157 15.398437-39.285157 34.328125-39.285157 18.929687 0 34.332031 17.621094 34.332031 39.289063zm-36.007813-119.511719c2.046876-3.28125 6.367188-4.28125 9.648438-2.230469 3.28125 2.046875 4.277344 6.367188 2.230469 9.648438l-94.769531 151.820312c-2.046876 3.277344-6.363282 4.277344-9.644532 2.230469-3.277344-2.046875-4.277344-6.367188-2.230468-9.644531zm-84.570312.433593c18.929688 0 34.328125 17.625 34.328125 39.285157 0 21.664062-15.398437 39.289062-34.328125 39.289062s-34.332031-17.625-34.332031-39.289062c0-21.660157 15.402343-39.285157 34.332031-39.285157zm0 0"/><path d="m267.761719 165.464844c0 13.945312 9.121093 25.289062 20.328125 25.289062 11.210937 0 20.332031-11.34375 20.332031-25.289062 0-13.941406-9.121094-25.285156-20.332031-25.285156-11.210938 0-20.328125 11.335937-20.328125 25.285156zm0 0"/><path d="m367.03125 295.484375c-.054688.027344-.109375.054687-.164062.082031l-64.972657 30.699219c.695313 3.601563.996094 7.265625.898438 10.929687-.105469 3.789063-3.203125 6.804688-6.992188 6.804688h-.203125l-95.09375-2.617188c-3.867187-.105468-6.914062-3.324218-6.808594-7.191406.105469-3.863281 3.328126-6.914062 7.191407-6.808594l87.425781 2.40625c-2.886719-16.953124-17.347656-29.511718-34.542969-29.988281l-57.847656-1.59375c-11.425781-.328125-22.628906-3.222656-32.785156-8.464843l-5.882813-3.050782c-28.914062-15.0625-63.746094-13.101562-90.785156 5.113282l-2.3125 84.160156 9.941406-5.320313c9.878906-5.3125 21.441406-6.578125 32.234375-3.527343l98.179688 27.558593c18.925781 3.875 38.589843 1.675781 56.191406-6.28125l136.015625-87.984375c-7.757812-7.949218-19.777344-9.941406-29.6875-4.925781zm0 0"/><path d="m.269531 390.582031 3.445313-125.214843 49.445312 1.359374-3.445312 125.214844zm0 0"/></symbol>
<symbol id="icon-clear" viewBox="0 0 24 24">
<path d="M18.984 6.422l-5.578 5.578 5.578 5.578-1.406 1.406-5.578-5.578-5.578 5.578-1.406-1.406 5.578-5.578-5.578-5.578 1.406-1.406 5.578 5.578 5.578-5.578z"></path>
</symbol>
<symbol id="icon-expand_more" viewBox="0 0 24 24">
<path d="M16.594 8.578l1.406 1.406-6 6-6-6 1.406-1.406 4.594 4.594z"></path>
</symbol>
<symbol id="icon-menu" viewBox="0 0 24 24">
<path d="M3 6h18v2.016h-18v-2.016zM3 12.984v-1.969h18v1.969h-18zM3 18v-2.016h18v2.016h-18z"></path>
</symbol>
<symbol id="icon-user" viewBox="0 0 24 24">
<path d="M0 0h24v24H0V0z" fill="none"/><path d="M12 5.9c1.16 0 2.1.94 2.1 2.1s-.94 2.1-2.1 2.1S9.9 9.16 9.9 8s.94-2.1 2.1-2.1m0 9c2.97 0 6.1 1.46 6.1 2.1v1.1H5.9V17c0-.64 3.13-2.1 6.1-2.1M12 4C9.79 4 8 5.79 8 8s1.79 4 4 4 4-1.79 4-4-1.79-4-4-4zm0 9c-2.67 0-8 1.34-8 4v3h16v-3c0-2.66-5.33-4-8-4z"/>
</symbol>
</svg>